HIERARCHY
ROOT Hips
{
	OFFSET 0.000000 0.000000 0.000000
	CHANNELS 6 Xposition Yposition Zposition Xrotation Yrotation Zrotation
	JOINT LeftUpLeg_virtual
	{
		OFFSET 0.000000 0.000000 0.000000
		CHANNELS 3 Xrotation Yrotation Zrotation
		JOINT LeftUpLeg
		{
			OFFSET 13.026900 -6.336304 -1.092800
			CHANNELS 3 Xrotation Yrotation Zrotation
			JOINT LeftLeg
			{
				OFFSET 0.524474 -46.096886 9.782700
				CHANNELS 3 Xrotation Yrotation Zrotation
				JOINT LeftFoot
				{
					OFFSET -0.524474 -53.427422 -12.948200
					CHANNELS 3 Xrotation Yrotation Zrotation
					JOINT LeftToeBase
					{
						OFFSET 0.192200 -14.009700 16.364100
						CHANNELS 3 Xrotation Yrotation Zrotation
						JOINT LeftToe_End
						{
							OFFSET -1.784700 -0.561700 9.474800
							CHANNELS 3 Xrotation Yrotation Zrotation
							End Site
							{
								OFFSET 0 0 0
							}
						}
					}
				}
			}
		}
	}
	JOINT RightUpLeg_virtual
	{
		OFFSET 0.000000 0.000000 0.000000
		CHANNELS 3 Xrotation Yrotation Zrotation
		JOINT RightUpLeg
		{
			OFFSET -12.883000 -6.336304 -1.092800
			CHANNELS 3 Xrotation Yrotation Zrotation
			JOINT RightLeg
			{
				OFFSET -0.524587 -46.096825 9.782800
				CHANNELS 3 Xrotation Yrotation Zrotation
				JOINT RightFoot
				{
					OFFSET 0.524587 -53.427383 -12.948300
					CHANNELS 3 Xrotation Yrotation Zrotation
					JOINT RightToeBase
					{
						OFFSET -0.192200 -14.009700 16.364100
						CHANNELS 3 Xrotation Yrotation Zrotation
						JOINT RightToe_End
						{
							OFFSET 1.784700 -0.561700 9.474800
							CHANNELS 3 Xrotation Yrotation Zrotation
							End Site
							{
								OFFSET 0 0 0
							}
						}
					}
				}
			}
		}
	}
	JOINT Spine_virtual
	{
		OFFSET 0.000000 0.000000 0.000000
		CHANNELS 3 Xrotation Yrotation Zrotation
		JOINT Spine
		{
			OFFSET 0.072000 7.257294 -0.789700
			CHANNELS 3 Xrotation Yrotation Zrotation
			JOINT Spine1
			{
				OFFSET 0.000000 12.508769 -0.658067
				CHANNELS 3 Xrotation Yrotation Zrotation
				JOINT Spine1_split
				{
					OFFSET 0.000000 12.508769 -0.658067
					CHANNELS 3 Xrotation Yrotation Zrotation
					JOINT Spine2
					{
						OFFSET 0.000000 12.508769 -0.658067
						CHANNELS 3 Xrotation Yrotation Zrotation
						JOINT Neck_virtual
						{
							OFFSET 0.000000 0.000000 0.000000
							CHANNELS 3 Xrotation Yrotation Zrotation
							JOINT Neck
							{
								OFFSET 0.000000 14.033295 7.520400
								CHANNELS 3 Xrotation Yrotation Zrotation
								JOINT Head
								{
									OFFSET 0.000000 8.198502 5.703100
									CHANNELS 3 Xrotation Yrotation Zrotation
									JOINT HeadTop_End
									{
										OFFSET 0.000000 17.760803 13.332701
										CHANNELS 3 Xrotation Yrotation Zrotation
										End Site
										{
											OFFSET 0 0 0
										}
									}
								}
							}
						}
						JOINT LeftShoulder_virtual
						{
							OFFSET 0.000000 0.000000 0.000000
							CHANNELS 3 Xrotation Yrotation Zrotation
							JOINT LeftShoulder
							{
								OFFSET 6.292450 5.785301 -0.669000
								CHANNELS 3 Xrotation Yrotation Zrotation
								JOINT LeftShoulder_split
								{
									OFFSET 6.292450 5.785301 -0.669000
									CHANNELS 3 Xrotation Yrotation Zrotation
									JOINT LeftArm
									{
										OFFSET 13.907140 -6.093903 1.965100
										CHANNELS 3 Xrotation Yrotation Zrotation
										JOINT LeftForeArm
										{
											OFFSET 34.140198 0.000000 0.000000
											CHANNELS 3 Xrotation Yrotation Zrotation
											JOINT LeftHand
											{
												OFFSET 40.960209 0.000000 0.000000
												CHANNELS 3 Xrotation Yrotation Zrotation
												End Site
												{
													OFFSET 0 0 0
												}
											}
										}
									}
								}
							}
						}
						JOINT RightShoulder_virtual
						{
							OFFSET 0.000000 0.000000 0.000000
							CHANNELS 3 Xrotation Yrotation Zrotation
							JOINT RightShoulder
							{
								OFFSET -6.292450 5.785301 -0.669000
								CHANNELS 3 Xrotation Yrotation Zrotation
								JOINT RightShoulder_split
								{
									OFFSET -6.292450 5.785301 -0.669000
									CHANNELS 3 Xrotation Yrotation Zrotation
									JOINT RightArm
									{
										OFFSET -13.907140 -6.093903 1.965100
										CHANNELS 3 Xrotation Yrotation Zrotation
										JOINT RightForeArm
										{
											OFFSET -34.140198 0.000000 0.000000
											CHANNELS 3 Xrotation Yrotation Zrotation
											JOINT RightHand
											{
												OFFSET -40.960209 0.000000 0.000000
												CHANNELS 3 Xrotation Yrotation Zrotation
												End Site
												{
													OFFSET 0 0 0
												}
											}
										}
									}
								}
							}
						}
					}
				}
			}
		}
	}
}
MOTION
Frames: 5
Frame Time: 0.03333333
0.613968 96.138046 1.826588 0.000000 0.000000 0.000000 10.717337 -52.648017 10.024429 -61.600042 27.397398 39.237470 36.703466 -17.278994 3.591044 5.917024 -7.123729 -12.383891 -2.975635 -4.817759 -0.455409 0.000000 0.000000 0.000000 11.560918 -53.243811 10.742247 -26.121493 -3.697917 -26.015212 40.409469 9.022825 -8.464268 -20.927875 -4.429337 26.762978 -0.218031 2.850628 2.469506 0.000000 0.000000 0.000000 12.068272 -46.354858 9.633517 6.835075 3.905542 -3.791106 6.647687 7.243807 -4.765376 0.299080 -2.215071 0.359235 0.000000 0.000000 0.000000 -3.312929 7.233609 -3.373284 -0.017694 13.961787 -1.562899 -2.149399 19.134097 -2.414068 0.000000 0.000000 0.000000 -4.273143 6.501312 -2.889353 -0.219597 -14.350634 0.536150 -2.340635 -2.249050 0.545001 -21.174433 1.433424 -48.621525 -20.083980 -12.962474 -9.358044 0.000000 0.000000 0.000000 -5.100527 6.617063 -2.560317 -0.820763 18.753862 -1.058358 -5.316003 -5.359177 6.995750 -1.179836 -22.496485 54.509325 -23.203964 43.558565 24.107682 0.000000 0.000000 0.000000 
1.269201 96.327393 2.036755 0.000000 0.000000 0.000000 10.991117 -52.775390 10.433970 -61.168633 26.539812 38.267415 36.788690 -17.510114 3.233056 6.287805 -6.203295 -12.432089 -1.836301 -4.742732 -0.846416 0.000000 0.000000 0.000000 11.695504 -53.825879 11.236559 -26.405766 -3.830328 -26.050616 40.392393 8.669895 -8.240893 -20.935964 -4.509153 25.239564 0.357690 2.824965 2.808498 0.000000 0.000000 0.000000 12.124837 -46.581675 9.641338 6.813465 3.899913 -3.993302 6.633653 7.240158 -4.910759 0.067541 -2.124834 0.443024 0.000000 0.000000 0.000000 -3.504863 7.225772 -3.428167 -0.100576 14.482931 -2.239154 -1.834763 19.666230 -2.922408 0.000000 0.000000 0.000000 -4.423444 6.525654 -2.969584 -0.350493 -13.914465 0.182179 -2.964798 -2.158260 0.589352 -20.396097 1.971052 -47.843812 -20.113548 -13.165128 -9.629378 0.000000 0.000000 0.000000 -4.998203 6.598806 -2.720083 -0.736281 18.729391 -0.575766 -6.959553 -4.406356 6.551586 -1.549442 -23.885281 54.139146 -23.318652 43.735815 24.593003 0.000000 0.000000 0.000000 
2.157881 96.795143 1.976913 0.000000 0.000000 0.000000 11.314228 -54.304198 11.150202 -60.237911 25.660845 37.920404 36.407675 -17.375708 2.632901 6.945534 -4.668880 -13.588994 -0.258719 -4.631166 -1.236597 0.000000 0.000000 0.000000 11.806454 -55.794979 11.996400 -27.754766 -3.882372 -25.579895 39.944603 8.911998 -7.830631 -20.286915 -4.251646 23.444319 0.586573 2.833305 2.663568 0.000000 0.000000 0.000000 12.282809 -48.456039 10.063469 7.288005 3.699134 -4.156968 6.808261 7.175566 -5.150336 -0.096888 -2.170511 0.744999 0.000000 0.000000 0.000000 -3.523161 7.130659 -3.606809 -0.421699 15.181535 -3.164627 -1.530587 20.289698 -4.202264 0.000000 0.000000 0.000000 -4.445539 6.546704 -3.180507 -0.567055 -12.943475 -1.032197 -3.575991 -2.410106 0.562593 -19.833975 3.023358 -46.884536 -18.829687 -13.818904 -9.316887 0.000000 0.000000 0.000000 -4.738663 6.586964 -3.003377 -0.658862 18.186342 0.180760 -8.141607 -4.144979 5.831925 -2.619492 -23.670074 52.385748 -24.157814 45.061657 26.145008 0.000000 0.000000 0.000000 
3.046650 97.274284 1.584026 0.000000 0.000000 0.000000 11.855266 -57.407610 12.290244 -58.955222 25.256057 38.551128 35.582577 -16.654522 1.809663 7.642414 -2.575727 -15.462746 0.774834 -4.491996 -1.401938 0.000000 0.000000 0.000000 12.199377 -59.310760 13.185204 -30.310614 -3.851747 -24.490087 39.731337 9.796727 -7.284629 -18.564500 -3.496864 21.900027 0.008485 2.817375 2.163461 0.000000 0.000000 0.000000 12.596643 -52.043484 10.970919 8.060134 3.275674 -4.242761 7.122724 6.973203 -5.440811 -0.269514 -2.220730 1.383651 0.000000 0.000000 0.000000 -3.323585 6.931582 -3.882238 -0.862472 16.112720 -4.335004 -1.355341 20.899187 -6.030343 0.000000 0.000000 0.000000 -4.328936 6.495580 -3.511309 -0.781153 -11.561271 -2.870383 -3.831935 -2.813278 0.364059 -19.533033 4.288723 -46.006884 -16.303030 -14.143649 -8.372906 0.000000 0.000000 0.000000 -4.427688 6.485886 -3.373165 -0.557944 17.058385 1.019679 -8.535735 -4.246920 5.170913 -3.832666 -21.368522 49.372012 -25.584528 47.553748 28.639617 0.000000 0.000000 0.000000 
3.757216 97.557213 0.745316 0.000000 0.000000 0.000000 13.250781 -62.037010 14.283860 -57.419563 25.763631 40.270748 34.787810 -14.860410 0.863819 7.608931 0.273009 -17.105002 0.997516 -4.329458 -1.235123 0.000000 0.000000 0.000000 13.201063 -64.086531 14.962033 -33.714162 -3.852511 -22.610998 39.706253 11.290308 -6.726034 -16.034904 -2.285964 20.698721 -1.321139 2.738598 1.494835 0.000000 0.000000 0.000000 13.508442 -57.047352 12.611999 9.028143 2.620115 -4.183992 7.550673 6.566867 -5.744444 -0.447749 -2.414645 1.963715 0.000000 0.000000 0.000000 -2.967090 6.588663 -4.189920 -1.281603 17.250802 -5.628710 -1.374606 21.311507 -8.126901 0.000000 0.000000 0.000000 -4.093726 6.275200 -3.923654 -0.919207 -9.918608 -4.849448 -3.782424 -3.138211 -0.028131 -19.233850 5.544096 -45.323018 -12.980273 -13.859734 -7.042866 0.000000 0.000000 0.000000 -4.116488 6.198241 -3.785412 -0.436217 15.371389 1.716873 -7.997235 -4.383571 4.511303 -4.635983 -17.107734 45.507484 -27.422969 50.933329 31.851248 0.000000 0.000000 0.000000 
